<svg width="16" height="16" viewBox="0 0 16 16" fill="none" xmlns="http://www.w3.org/2000/svg">
    <mask id="mask0_6_2521" style="mask-type:alpha" maskUnits="userSpaceOnUse" x="0" y="0" width="16" height="16">
        <path fill-rule="evenodd" clip-rule="evenodd" d="M6.42765 0.333313C3.06482 0.333313 0.333984 3.03771 0.333984 6.37954C0.333984 9.72137 3.06482 12.4258 6.42765 12.4258C7.6814 12.4258 8.84765 12.0497 9.81693 11.405L13.7923 15.3476C14.2213 15.773 14.9156 15.773 15.3445 15.3476C15.7749 14.9207 15.7749 14.2274 15.3445 13.8005L11.3945 9.8831C12.1038 8.89485 12.5213 7.68529 12.5213 6.37954C12.5213 3.03771 9.79049 0.333313 6.42765 0.333313ZM2.53182 6.37954C2.53182 4.24976 4.27344 2.51853 6.42765 2.51853C8.58187 2.51853 10.3235 4.24976 10.3235 6.37954C10.3235 8.50932 8.58187 10.2405 6.42765 10.2405C4.27344 10.2405 2.53182 8.50932 2.53182 6.37954Z" fill="white"/>
    </mask>
    <g mask="url(#mask0_6_2521)">
        <rect width="16" height="16" fill="#2F3036"/>
    </g>
</svg>
