<svg width="30" height="30" viewBox="0 0 30 30" fill="none" xmlns="http://www.w3.org/2000/svg">
    <mask id="mask0" style="mask-type:alpha" maskUnits="userSpaceOnUse" x="0" y="1" width="29" height="29">
        <path fill-rule="evenodd" clip-rule="evenodd" d="M5 6.5625C4.48223 6.5625 4.0625 6.98223 4.0625 7.5V25C4.0625 25.5178 4.48223 25.9375 5 25.9375H22.5C23.0178 25.9375 23.4375 25.5178 23.4375 25V16.25C23.4375 15.3871 24.1371 14.6875 25 14.6875C25.8629 14.6875 26.5625 15.3871 26.5625 16.25V25C26.5625 27.2437 24.7437 29.0625 22.5 29.0625H5C2.75634 29.0625 0.9375 27.2437 0.9375 25V7.5C0.9375 5.25634 2.75634 3.4375 5 3.4375H13.75C14.6129 3.4375 15.3125 4.13706 15.3125 5C15.3125 5.86294 14.6129 6.5625 13.75 6.5625H5Z" fill="white"/>
        <path d="M16.3684 17.876L25.3031 8.94121L21.0593 4.69736L12.1245 13.6321C12.0015 13.7553 11.9141 13.9095 11.8716 14.0783L10.8813 19.1192L15.9213 18.1289C16.0905 18.0866 16.2453 17.9991 16.3684 17.876ZM28.1875 6.05685C28.548 5.69626 28.7505 5.20725 28.7505 4.69736C28.7505 4.18747 28.548 3.69846 28.1875 3.33787L26.6626 1.813C26.302 1.45251 25.813 1.25 25.3031 1.25C24.7933 1.25 24.3042 1.45251 23.9436 1.813L22.4188 3.33787L26.6626 7.58172L28.1875 6.05685Z" fill="white"/>
    </mask>
    <g mask="url(#mask0)">
        <rect width="30" height="30" fill="#006FFD"/>
    </g>
</svg>
